<svg width="240" height="240" viewBox="0 0 240 240" fill="none" xmlns="http://www.w3.org/2000/svg">
  <rect width="240" height="240" rx="48" fill="#F3FBF8"/>
  <circle cx="120" cy="120" r="88" fill="url(#bg)"/>
  <circle cx="120" cy="98" r="34" fill="#F4C6A8"/>
  <path d="M72 184C72 154.729 95.7294 131 125 131H115C144.271 131 168 154.729 168 184V191H72V184Z" fill="#F4C6A8"/>
  <path d="M90 95C90 74.5655 106.565 58 127 58C147.435 58 164 74.5655 164 95V104H90V95Z" fill="#24415B"/>
  <path d="M79 186C90 162 103.667 150 120 150C136.333 150 150 162 161 186" stroke="#FFFFFF" stroke-width="18" stroke-linecap="round"/>
  <path d="M120 150V191" stroke="#D9ECFF" stroke-width="10" stroke-linecap="round"/>
  <defs>
    <linearGradient id="bg" x1="51" y1="45" x2="196" y2="204" gradientUnits="userSpaceOnUse">
      <stop stop-color="#8DE5D6"/>
      <stop offset="1" stop-color="#139E8C"/>
    </linearGradient>
  </defs>
</svg>
