<svg width="240" height="240" viewBox="0 0 240 240" fill="none" xmlns="http://www.w3.org/2000/svg">
  <rect width="240" height="240" rx="48" fill="#EEF6FF"/>
  <circle cx="120" cy="120" r="88" fill="url(#bg)"/>
  <circle cx="120" cy="100" r="34" fill="#F2C7A5"/>
  <path d="M72 179C72 153.595 92.5949 133 118 133H122C147.405 133 168 153.595 168 179V189H72V179Z" fill="#F2C7A5"/>
  <path d="M88 95C88 74.0132 105.013 57 126 57C146.987 57 164 74.0132 164 95V101H88V95Z" fill="#1F4C7A"/>
  <path d="M84 185C92.6667 167.667 104.667 159 120 159C135.333 159 147.333 167.667 156 185" stroke="#2C6FA3" stroke-width="10" stroke-linecap="round"/>
  <defs>
    <linearGradient id="bg" x1="47" y1="41" x2="192" y2="205" gradientUnits="userSpaceOnUse">
      <stop stop-color="#7CC7FF"/>
      <stop offset="1" stop-color="#0F6CBD"/>
    </linearGradient>
  </defs>
</svg>
